ffmpeg started on 2025-07-20 at 11:58:39
Report written to "D:\Convert\FFMetrics\reports\psnr_report-6.txt"
Log level: 32
Command line:
ffmpeg -hide_banner -nostdin -i "G:\\\xc0\xed\xe8\xec\xe5\\\xce\xed\xe3\xee\xe8\xed\xe3\xe8\\!_10_\xc2\xe5\xf1\xed\xe0_2018\\\xcf\xee\xf2\xe5\xf0\xff\xed\xed\xe0\xff \xef\xe5\xf1\xed\xff\\[SHIZA Project] Lost Song ONA [04] [MVO]_HEVC.mkv" -i "G:\\\xc0\xed\xe8\xec\xe5\\\xce\xed\xe3\xee\xe8\xed\xe3\xe8\\!_10_\xc2\xe5\xf1\xed\xe0_2018\\\xcf\xee\xf2\xe5\xf0\xff\xed\xed\xe0\xff \xef\xe5\xf1\xed\xff\\[SHIZA Project] Lost Song ONA [04] [MVO].mkv" -lavfi "[0:v]settb=AVTB,setpts=PTS-STARTPTS,format=pix_fmts=yuv420p10,fps=24000/1001,scale=1280:720:flags=bicubic[main];[1:v]settb=AVTB,setpts=PTS-STARTPTS,format=pix_fmts=yuv420p,fps=24000/1001,scale=1280:720:flags=bicubic[ref];[main][ref]psnr=eof_action=endall:stats_file='D\\:/Convert/FFMetrics/logs/psnr_logfile-6.txt'" -f null -
Input #0, matroska,webm, from 'G:\Аниме\Онгоинги\!_10_Весна_2018\Потерянная песня\[SHIZA Project] Lost Song ONA [04] [MVO]_HEVC.mkv':
  Metadata:
    ENCODER         : Lavf61.7.100
  Duration: 00:23:57.10, start: -0.021000, bitrate: 554 kb/s
  Stream #0:0(jpn): Video: hevc (Main 10), yuv420p10le(tv, bt709, progressive), 1280x720 [SAR 1:1 DAR 16:9], 23.98 fps, 23.98 tbr, 1k tbn
      Metadata:
        title           : www.SHIZA-Project.com
        ENCODER         : Lavc61.19.100 libx265
        BPS             : 358511
        DURATION        : 00:23:57.060708333
        NUMBER_OF_FRAMES: 34455
        NUMBER_OF_BYTES : 64400394
        _STATISTICS_WRITING_APP: mkvpropedit v66.0.0 ('Josie') 64-bit
        _STATISTICS_WRITING_DATE_UTC: 2025-07-19 12:35:45
        _STATISTICS_TAGS: BPS DURATION NUMBER_OF_FRAMES NUMBER_OF_BYTES
  Stream #0:1(rus): Audio: aac (LC), 48000 Hz, stereo, fltp (default)
      Metadata:
        title           : MVO SHIZA Project
        ENCODER         : Lavc61.19.100 aac
        BPS             : 191497
        DURATION        : 00:23:57.077000000
        NUMBER_OF_FRAMES: 67364
        NUMBER_OF_BYTES : 34399593
        _STATISTICS_WRITING_APP: mkvpropedit v66.0.0 ('Josie') 64-bit
        _STATISTICS_WRITING_DATE_UTC: 2025-07-19 12:35:45
        _STATISTICS_TAGS: BPS DURATION NUMBER_OF_FRAMES NUMBER_OF_BYTES
  Stream #0:2(rus): Subtitle: ass (ssa) (default)
      Metadata:
        title           : Song
        BPS             : 40
        DURATION        : 00:01:18.370000000
        NUMBER_OF_FRAMES: 4
        NUMBER_OF_BYTES : 397
        _STATISTICS_WRITING_APP: mkvpropedit v66.0.0 ('Josie') 64-bit
        _STATISTICS_WRITING_DATE_UTC: 2025-07-19 12:35:45
        _STATISTICS_TAGS: BPS DURATION NUMBER_OF_FRAMES NUMBER_OF_BYTES
Input #1, matroska,webm, from 'G:\Аниме\Онгоинги\!_10_Весна_2018\Потерянная песня\[SHIZA Project] Lost Song ONA [04] [MVO].mkv':
  Metadata:
    encoder         : libebml v1.3.0 + libmatroska v1.4.0
    creation_time   : 2018-06-24T21:12:18.000000Z
  Duration: 00:23:57.08, start: 0.000000, bitrate: 1660 kb/s
  Stream #1:0(jpn): Video: h264 (Main), yuv420p(progressive), 1280x720 [SAR 1:1 DAR 16:9], 23.98 fps, 23.98 tbr, 1k tbn
      Metadata:
        title           : www.SHIZA-Project.com
        BPS             : 1466607
        BPS-eng         : 1466607
        DURATION        : 00:23:57.061000000
        DURATION-eng    : 00:23:57.061000000
        NUMBER_OF_FRAMES: 34455
        NUMBER_OF_FRAMES-eng: 34455
        NUMBER_OF_BYTES : 263450587
        NUMBER_OF_BYTES-eng: 263450587
        _STATISTICS_WRITING_APP: mkvmerge v7.8.0 ('River Man') 32bit built on Mar 27 2015 16:18:02
        _STATISTICS_WRITING_APP-eng: mkvmerge v7.8.0 ('River Man') 32bit built on Mar 27 2015 16:18:02
        _STATISTICS_WRITING_DATE_UTC: 2018-06-24 19:28:39
        _STATISTICS_WRITING_DATE_UTC-eng: 2018-06-24 19:28:39
        _STATISTICS_TAGS: BPS DURATION NUMBER_OF_FRAMES NUMBER_OF_BYTES
        _STATISTICS_TAGS-eng: BPS DURATION NUMBER_OF_FRAMES NUMBER_OF_BYTES
  Stream #1:1(rus): Audio: aac (LC), 48000 Hz, stereo, fltp (default)
      Metadata:
        title           : MVO SHIZA Project
        BPS             : 191999
        BPS-eng         : 191999
        DURATION        : 00:23:57.077000000
        DURATION-eng    : 00:23:57.077000000
        NUMBER_OF_FRAMES: 67363
        NUMBER_OF_FRAMES-eng: 67363
        NUMBER_OF_BYTES : 34489797
        NUMBER_OF_BYTES-eng: 34489797
        _STATISTICS_WRITING_APP: mkvmerge v7.8.0 ('River Man') 32bit built on Mar 27 2015 16:18:02
        _STATISTICS_WRITING_APP-eng: mkvmerge v7.8.0 ('River Man') 32bit built on Mar 27 2015 16:18:02
        _STATISTICS_WRITING_DATE_UTC: 2018-06-24 19:28:39
        _STATISTICS_WRITING_DATE_UTC-eng: 2018-06-24 19:28:39
        _STATISTICS_TAGS: BPS DURATION NUMBER_OF_FRAMES NUMBER_OF_BYTES
        _STATISTICS_TAGS-eng: BPS DURATION NUMBER_OF_FRAMES NUMBER_OF_BYTES
  Stream #1:2(rus): Subtitle: ass (ssa) (default)
      Metadata:
        title           : Song
        BPS             : 40
        BPS-eng         : 40
        DURATION        : 00:01:18.370000000
        DURATION-eng    : 00:01:18.370000000
        NUMBER_OF_FRAMES: 4
        NUMBER_OF_FRAMES-eng: 4
        NUMBER_OF_BYTES : 397
        NUMBER_OF_BYTES-eng: 397
        _STATISTICS_WRITING_APP: mkvmerge v7.8.0 ('River Man') 32bit built on Mar 27 2015 16:18:02
        _STATISTICS_WRITING_APP-eng: mkvmerge v7.8.0 ('River Man') 32bit built on Mar 27 2015 16:18:02
        _STATISTICS_WRITING_DATE_UTC: 2018-06-24 19:28:39
        _STATISTICS_WRITING_DATE_UTC-eng: 2018-06-24 19:28:39
        _STATISTICS_TAGS: BPS DURATION NUMBER_OF_FRAMES NUMBER_OF_BYTES
        _STATISTICS_TAGS-eng: BPS DURATION NUMBER_OF_FRAMES NUMBER_OF_BYTES
Stream mapping:
  Stream #0:0 (hevc) -> settb:default
  Stream #1:0 (h264) -> settb:default
  psnr:default -> Stream #0:0 (wrapped_avframe)
  Stream #0:1 -> #0:1 (aac (native) -> pcm_s16le (native))
[swscaler @ 000002333aef6780] No accelerated colorspace conversion found from yuv420p to bgr48le.
[swscaler @ 000002333b0c56c0] No accelerated colorspace conversion found from yuv420p to bgr48le.
[swscaler @ 000002333b1ab500] No accelerated colorspace conversion found from yuv420p to bgr48le.
[swscaler @ 000002333b20e440] No accelerated colorspace conversion found from yuv420p to bgr48le.
[swscaler @ 000002333b27f380] No accelerated colorspace conversion found from yuv420p to bgr48le.
[swscaler @ 000002333b303280] No accelerated colorspace conversion found from yuv420p to bgr48le.
[swscaler @ 000002333b373040] No accelerated colorspace conversion found from yuv420p to bgr48le.
[swscaler @ 000002333b3d2040] No accelerated colorspace conversion found from yuv420p to bgr48le.
[swscaler @ 000002333b441040] No accelerated colorspace conversion found from yuv420p to bgr48le.
[swscaler @ 000002333b4c5040] No accelerated colorspace conversion found from yuv420p to bgr48le.
[swscaler @ 000002333b531040] No accelerated colorspace conversion found from yuv420p to bgr48le.
[swscaler @ 000002333b595040] No accelerated colorspace conversion found from yuv420p to bgr48le.
[swscaler @ 000002333b5f9040] No accelerated colorspace conversion found from yuv420p to bgr48le.
[swscaler @ 000002333b682040] No accelerated colorspace conversion found from yuv420p to bgr48le.
[swscaler @ 000002333b6df040] No accelerated colorspace conversion found from yuv420p to bgr48le.
[swscaler @ 000002333b75e040] No accelerated colorspace conversion found from yuv420p to bgr48le.
Output #0, null, to 'pipe:':
  Metadata:
    encoder         : Lavf61.7.100
  Stream #0:0: Video: wrapped_avframe, yuv420p10le(tv, bt709, progressive), 1280x720 [SAR 1:1 DAR 16:9], q=2-31, 200 kb/s, 23.98 fps, 23.98 tbn
      Metadata:
        encoder         : Lavc61.19.100 wrapped_avframe
  Stream #0:1(rus): Audio: pcm_s16le, 48000 Hz, stereo, s16, 1536 kb/s (default)
      Metadata:
        title           : MVO SHIZA Project
        _STATISTICS_TAGS: BPS DURATION NUMBER_OF_FRAMES NUMBER_OF_BYTES
        BPS             : 191497
        DURATION        : 00:23:57.077000000
        NUMBER_OF_FRAMES: 67364
        NUMBER_OF_BYTES : 34399593
        _STATISTICS_WRITING_APP: mkvpropedit v66.0.0 ('Josie') 64-bit
        _STATISTICS_WRITING_DATE_UTC: 2025-07-19 12:35:45
        encoder         : Lavc61.19.100 pcm_s16le
frame=   87 fps=0.0 q=-0.0 size=N/A time=00:00:03.62 bitrate=N/A speed=6.99x    frame=  185 fps=178 q=-0.0 size=N/A time=00:00:07.71 bitrate=N/A speed=7.41x    frame=  275 fps=178 q=-0.0 size=N/A time=00:00:11.46 bitrate=N/A speed=7.42x    frame=  373 fps=181 q=-0.0 size=N/A time=00:00:15.55 bitrate=N/A speed=7.54x    frame=  465 fps=180 q=-0.0 size=N/A time=00:00:19.39 bitrate=N/A speed= 7.5x    frame=  565 fps=183 q=-0.0 size=N/A time=00:00:23.56 bitrate=N/A speed=7.62x    frame=  659 fps=182 q=-0.0 size=N/A time=00:00:27.48 bitrate=N/A speed= 7.6x    frame=  756 fps=183 q=-0.0 size=N/A time=00:00:31.53 bitrate=N/A speed=7.62x    frame=  837 fps=180 q=-0.0 size=N/A time=00:00:34.90 bitrate=N/A speed=7.52x    frame=  952 fps=184 q=-0.0 size=N/A time=00:00:39.70 bitrate=N/A speed=7.69x    frame= 1048 fps=185 q=-0.0 size=N/A time=00:00:43.71 bitrate=N/A speed= 7.7x    frame= 1141 fps=184 q=-0.0 size=N/A time=00:00:47.58 bitrate=N/A speed=7.68x    frame= 1239 fps=184 q=-0.0 size=N/A time=00:00:51.67 bitrate=N/A speed=7.69x    frame= 1338 fps=185 q=-0.0 size=N/A time=00:00:55.80 bitrate=N/A speed=7.72x    frame= 1443 fps=186 q=-0.0 size=N/A time=00:01:00.18 bitrate=N/A speed=7.77x    frame= 1534 fps=186 q=-0.0 size=N/A time=00:01:03.98 bitrate=N/A speed=7.75x    frame= 1629 fps=186 q=-0.0 size=N/A time=00:01:07.94 bitrate=N/A speed=7.75x    frame= 1732 fps=186 q=-0.0 size=N/A time=00:01:12.23 bitrate=N/A speed=7.78x    frame= 1814 fps=185 q=-0.0 size=N/A time=00:01:15.65 bitrate=N/A speed=7.72x    frame= 1914 fps=186 q=-0.0 size=N/A time=00:01:19.82 bitrate=N/A speed=7.74x    frame= 2014 fps=186 q=-0.0 size=N/A time=00:01:24.00 bitrate=N/A speed=7.75x    frame= 2105 fps=185 q=-0.0 size=N/A time=00:01:27.79 bitrate=N/A speed=7.74x    frame= 2208 fps=186 q=-0.0 size=N/A time=00:01:32.09 bitrate=N/A speed=7.76x    frame= 2300 fps=186 q=-0.0 size=N/A time=00:01:35.92 bitrate=N/A speed=7.74x    frame= 2402 fps=186 q=-0.0 size=N/A time=00:01:40.18 bitrate=N/A speed=7.77x    frame= 2500 fps=186 q=-0.0 size=N/A time=00:01:44.27 bitrate=N/A speed=7.77x    frame= 2589 fps=186 q=-0.0 size=N/A time=00:01:47.98 bitrate=N/A speed=7.76x    frame= 2690 fps=186 q=-0.0 size=N/A time=00:01:52.19 bitrate=N/A speed=7.76x    frame= 2778 fps=186 q=-0.0 size=N/A time=00:01:55.86 bitrate=N/A speed=7.75x    frame= 2888 fps=187 q=-0.0 size=N/A time=00:02:00.45 bitrate=N/A speed=7.78x    frame= 2976 fps=186 q=-0.0 size=N/A time=00:02:04.12 bitrate=N/A speed=7.76x    frame= 3080 fps=187 q=-0.0 size=N/A time=00:02:08.46 bitrate=N/A speed=7.78x    frame= 3173 fps=186 q=-0.0 size=N/A time=00:02:12.34 bitrate=N/A speed=7.78x    frame= 3267 fps=186 q=-0.0 size=N/A time=00:02:16.26 bitrate=N/A speed=7.77x    frame= 3359 fps=186 q=-0.0 size=N/A time=00:02:20.09 bitrate=N/A speed=7.76x    frame= 3457 fps=186 q=-0.0 size=N/A time=00:02:24.18 bitrate=N/A speed=7.76x    frame= 3555 fps=186 q=-0.0 size=N/A time=00:02:28.27 bitrate=N/A speed=7.77x    frame= 3654 fps=186 q=-0.0 size=N/A time=00:02:32.40 bitrate=N/A speed=7.78x    frame= 3752 fps=186 q=-0.0 size=N/A time=00:02:36.48 bitrate=N/A speed=7.78x    frame= 3845 fps=186 q=-0.0 size=N/A time=00:02:40.36 bitrate=N/A speed=7.77x    frame= 3944 fps=186 q=-0.0 size=N/A time=00:02:44.49 bitrate=N/A speed=7.78x    frame= 4032 fps=186 q=-0.0 size=N/A time=00:02:48.16 bitrate=N/A speed=7.76x    frame= 4136 fps=186 q=-0.0 size=N/A time=00:02:52.50 bitrate=N/A speed=7.78x    frame= 4231 fps=186 q=-0.0 size=N/A time=00:02:56.46 bitrate=N/A speed=7.78x    frame= 4324 fps=186 q=-0.0 size=N/A time=00:03:00.34 bitrate=N/A speed=7.77x    frame= 4413 fps=186 q=-0.0 size=N/A time=00:03:04.05 bitrate=N/A speed=7.76x    frame= 4512 fps=186 q=-0.0 size=N/A time=00:03:08.18 bitrate=N/A speed=7.76x    frame= 4604 fps=186 q=-0.0 size=N/A time=00:03:12.02 bitrate=N/A speed=7.76x    frame= 4698 fps=186 q=-0.0 size=N/A time=00:03:15.94 bitrate=N/A speed=7.75x    frame= 4800 fps=186 q=-0.0 size=N/A time=00:03:20.20 bitrate=N/A speed=7.76x    frame= 4894 fps=186 q=-0.0 size=N/A time=00:03:24.12 bitrate=N/A speed=7.76x    frame= 4995 fps=186 q=-0.0 size=N/A time=00:03:28.33 bitrate=N/A speed=7.77x    frame= 5095 fps=186 q=-0.0 size=N/A time=00:03:32.50 bitrate=N/A speed=7.77x    frame= 5198 fps=187 q=-0.0 size=N/A time=00:03:36.79 bitrate=N/A speed=7.78x    frame= 5296 fps=187 q=-0.0 size=N/A time=00:03:40.88 bitrate=N/A speed=7.79x    frame= 5391 fps=187 q=-0.0 size=N/A time=00:03:44.84 bitrate=N/A speed=7.79x    frame= 5491 fps=187 q=-0.0 size=N/A time=00:03:49.02 bitrate=N/A speed=7.79x    frame= 5580 fps=187 q=-0.0 size=N/A time=00:03:52.73 bitrate=N/A speed=7.78x    frame= 5684 fps=187 q=-0.0 size=N/A time=00:03:57.07 bitrate=N/A speed=7.79x    frame= 5778 fps=187 q=-0.0 size=N/A time=00:04:00.99 bitrate=N/A speed=7.79x    frame= 5870 fps=187 q=-0.0 size=N/A time=00:04:04.82 bitrate=N/A speed=7.78x    frame= 5961 fps=186 q=-0.0 size=N/A time=00:04:08.62 bitrate=N/A speed=7.77x    frame= 6056 fps=186 q=-0.0 size=N/A time=00:04:12.58 bitrate=N/A speed=7.77x    frame= 6151 fps=186 q=-0.0 size=N/A time=00:04:16.54 bitrate=N/A speed=7.77x    frame= 6250 fps=186 q=-0.0 size=N/A time=00:04:20.67 bitrate=N/A speed=7.78x    frame= 6343 fps=186 q=-0.0 size=N/A time=00:04:24.55 bitrate=N/A speed=7.77x    frame= 6432 fps=186 q=-0.0 size=N/A time=00:04:28.26 bitrate=N/A speed=7.76x    frame= 6523 fps=186 q=-0.0 size=N/A time=00:04:32.06 bitrate=N/A speed=7.76x    frame= 6620 fps=186 q=-0.0 size=N/A time=00:04:36.10 bitrate=N/A speed=7.76x    frame= 6719 fps=186 q=-0.0 size=N/A time=00:04:40.23 bitrate=N/A speed=7.76x    frame= 6815 fps=186 q=-0.0 size=N/A time=00:04:44.24 bitrate=N/A speed=7.76x    frame= 6915 fps=186 q=-0.0 size=N/A time=00:04:48.41 bitrate=N/A speed=7.77x    frame= 7010 fps=186 q=-0.0 size=N/A time=00:04:52.37 bitrate=N/A speed=7.77x    frame= 7097 fps=186 q=-0.0 size=N/A time=00:04:56.00 bitrate=N/A speed=7.76x    frame= 7196 fps=186 q=-0.0 size=N/A time=00:05:00.13 bitrate=N/A speed=7.76x    frame= 7296 fps=186 q=-0.0 size=N/A time=00:05:04.30 bitrate=N/A speed=7.76x    frame= 7393 fps=186 q=-0.0 size=N/A time=00:05:08.34 bitrate=N/A speed=7.77x    frame= 7489 fps=186 q=-0.0 size=N/A time=00:05:12.35 bitrate=N/A speed=7.76x    frame= 7589 fps=186 q=-0.0 size=N/A time=00:05:16.52 bitrate=N/A speed=7.77x    frame= 7677 fps=186 q=-0.0 size=N/A time=00:05:20.19 bitrate=N/A speed=7.76x    frame= 7770 fps=186 q=-0.0 size=N/A time=00:05:24.07 bitrate=N/A speed=7.76x    frame= 7872 fps=186 q=-0.0 size=N/A time=00:05:28.32 bitrate=N/A speed=7.76x    frame= 7973 fps=186 q=-0.0 size=N/A time=00:05:32.54 bitrate=N/A speed=7.77x    frame= 8062 fps=186 q=-0.0 size=N/A time=00:05:36.25 bitrate=N/A speed=7.76x    frame= 8167 fps=186 q=-0.0 size=N/A time=00:05:40.63 bitrate=N/A speed=7.77x    frame= 8264 fps=186 q=-0.0 size=N/A time=00:05:44.67 bitrate=N/A speed=7.77x    frame= 8354 fps=186 q=-0.0 size=N/A time=00:05:48.43 bitrate=N/A speed=7.77x    frame= 8442 fps=186 q=-0.0 size=N/A time=00:05:52.10 bitrate=N/A speed=7.76x    frame= 8532 fps=186 q=-0.0 size=N/A time=00:05:55.85 bitrate=N/A speed=7.75x    frame= 8630 fps=186 q=-0.0 size=N/A time=00:05:59.94 bitrate=N/A speed=7.75x    frame= 8725 fps=186 q=-0.0 size=N/A time=00:06:03.90 bitrate=N/A speed=7.75x    frame= 8814 fps=186 q=-0.0 size=N/A time=00:06:07.61 bitrate=N/A speed=7.75x    frame= 8916 fps=186 q=-0.0 size=N/A time=00:06:11.87 bitrate=N/A speed=7.75x    frame= 9010 fps=186 q=-0.0 size=N/A time=00:06:15.79 bitrate=N/A speed=7.75x    frame= 9113 fps=186 q=-0.0 size=N/A time=00:06:20.08 bitrate=N/A speed=7.76x    frame= 9208 fps=186 q=-0.0 size=N/A time=00:06:24.05 bitrate=N/A speed=7.76x    frame= 9306 fps=186 q=-0.0 size=N/A time=00:06:28.13 bitrate=N/A speed=7.76x    frame= 9406 fps=186 q=-0.0 size=N/A time=00:06:32.30 bitrate=N/A speed=7.76x    frame= 9502 fps=186 q=-0.0 size=N/A time=00:06:36.31 bitrate=N/A speed=7.76x    frame= 9597 fps=186 q=-0.0 size=N/A time=00:06:40.27 bitrate=N/A speed=7.76x    frame= 9694 fps=186 q=-0.0 size=N/A time=00:06:44.32 bitrate=N/A speed=7.76x    frame= 9786 fps=186 q=-0.0 size=N/A time=00:06:48.15 bitrate=N/A speed=7.76x    frame= 9884 fps=186 q=-0.0 size=N/A time=00:06:52.24 bitrate=N/A speed=7.76x    frame= 9980 fps=186 q=-0.0 size=N/A time=00:06:56.24 bitrate=N/A speed=7.76x    frame=10075 fps=186 q=-0.0 size=N/A time=00:07:00.21 bitrate=N/A speed=7.76x    frame=10168 fps=186 q=-0.0 size=N/A time=00:07:04.09 bitrate=N/A speed=7.76x    frame=10259 fps=186 q=-0.0 size=N/A time=00:07:07.88 bitrate=N/A speed=7.75x    frame=10364 fps=186 q=-0.0 size=N/A time=00:07:12.26 bitrate=N/A speed=7.76x    frame=10457 fps=186 q=-0.0 size=N/A time=00:07:16.14 bitrate=N/A speed=7.76x    frame=10563 fps=186 q=-0.0 size=N/A time=00:07:20.56 bitrate=N/A speed=7.77x    frame=10657 fps=186 q=-0.0 size=N/A time=00:07:24.48 bitrate=N/A speed=7.77x    frame=10755 fps=186 q=-0.0 size=N/A time=00:07:28.57 bitrate=N/A speed=7.77x    frame=10856 fps=186 q=-0.0 size=N/A time=00:07:32.78 bitrate=N/A speed=7.77x    frame=10946 fps=186 q=-0.0 size=N/A time=00:07:36.53 bitrate=N/A speed=7.77x    frame=11045 fps=186 q=-0.0 size=N/A time=00:07:40.66 bitrate=N/A speed=7.77x    frame=11139 fps=186 q=-0.0 size=N/A time=00:07:44.58 bitrate=N/A speed=7.77x    frame=11235 fps=186 q=-0.0 size=N/A time=00:07:48.59 bitrate=N/A speed=7.77x    frame=11333 fps=186 q=-0.0 size=N/A time=00:07:52.68 bitrate=N/A speed=7.77x    frame=11431 fps=186 q=-0.0 size=N/A time=00:07:56.76 bitrate=N/A speed=7.77x    frame=11527 fps=186 q=-0.0 size=N/A time=00:08:00.77 bitrate=N/A speed=7.77x    frame=11623 fps=186 q=-0.0 size=N/A time=00:08:04.77 bitrate=N/A speed=7.77x    frame=11723 fps=186 q=-0.0 size=N/A time=00:08:08.94 bitrate=N/A speed=7.77x    frame=11812 fps=186 q=-0.0 size=N/A time=00:08:12.65 bitrate=N/A speed=7.77x    frame=11920 fps=186 q=-0.0 size=N/A time=00:08:17.16 bitrate=N/A speed=7.77x    frame=12021 fps=186 q=-0.0 size=N/A time=00:08:21.37 bitrate=N/A speed=7.78x    frame=12119 fps=187 q=-0.0 size=N/A time=00:08:25.46 bitrate=N/A speed=7.78x    frame=12220 fps=187 q=-0.0 size=N/A time=00:08:29.67 bitrate=N/A speed=7.78x    frame=12310 fps=187 q=-0.0 size=N/A time=00:08:33.42 bitrate=N/A speed=7.78x    frame=12411 fps=187 q=-0.0 size=N/A time=00:08:37.64 bitrate=N/A speed=7.78x    frame=12504 fps=187 q=-0.0 size=N/A time=00:08:41.52 bitrate=N/A speed=7.78x    frame=12584 fps=186 q=-0.0 size=N/A time=00:08:44.85 bitrate=N/A speed=7.77x    frame=12699 fps=187 q=-0.0 size=N/A time=00:08:49.65 bitrate=N/A speed=7.78x    frame=12799 fps=187 q=-0.0 size=N/A time=00:08:53.82 bitrate=N/A speed=7.78x    frame=12901 fps=187 q=-0.0 size=N/A time=00:08:58.07 bitrate=N/A speed=7.79x    frame=12993 fps=187 q=-0.0 size=N/A time=00:09:01.91 bitrate=N/A speed=7.79x    frame=13092 fps=187 q=-0.0 size=N/A time=00:09:06.04 bitrate=N/A speed=7.79x    frame=13205 fps=187 q=-0.0 size=N/A time=00:09:10.75 bitrate=N/A speed= 7.8x    frame=13304 fps=187 q=-0.0 size=N/A time=00:09:14.88 bitrate=N/A speed= 7.8x    frame=13405 fps=187 q=-0.0 size=N/A time=00:09:19.10 bitrate=N/A speed= 7.8x    frame=13491 fps=187 q=-0.0 size=N/A time=00:09:22.68 bitrate=N/A speed=7.79x    frame=13601 fps=187 q=-0.0 size=N/A time=00:09:27.27 bitrate=N/A speed= 7.8x    frame=13702 fps=187 q=-0.0 size=N/A time=00:09:31.48 bitrate=N/A speed= 7.8x    frame=13795 fps=187 q=-0.0 size=N/A time=00:09:35.36 bitrate=N/A speed= 7.8x    frame=13892 fps=187 q=-0.0 size=N/A time=00:09:39.41 bitrate=N/A speed= 7.8x    frame=13978 fps=187 q=-0.0 size=N/A time=00:09:42.99 bitrate=N/A speed= 7.8x    frame=14071 fps=187 q=-0.0 size=N/A time=00:09:46.87 bitrate=N/A speed= 7.8x    frame=14168 fps=187 q=-0.0 size=N/A time=00:09:50.92 bitrate=N/A speed= 7.8x    frame=14260 fps=187 q=-0.0 size=N/A time=00:09:54.76 bitrate=N/A speed=7.79x    frame=14350 fps=187 q=-0.0 size=N/A time=00:09:58.51 bitrate=N/A speed=7.79x    frame=14450 fps=187 q=-0.0 size=N/A time=00:10:02.68 bitrate=N/A speed=7.79x    frame=14550 fps=187 q=-0.0 size=N/A time=00:10:06.85 bitrate=N/A speed=7.79x    frame=14651 fps=187 q=-0.0 size=N/A time=00:10:11.06 bitrate=N/A speed= 7.8x    frame=14754 fps=187 q=-0.0 size=N/A time=00:10:15.36 bitrate=N/A speed= 7.8x    frame=14858 fps=187 q=-0.0 size=N/A time=00:10:19.70 bitrate=N/A speed= 7.8x    frame=14958 fps=187 q=-0.0 size=N/A time=00:10:23.87 bitrate=N/A speed= 7.8x    frame=15057 fps=187 q=-0.0 size=N/A time=00:10:28.00 bitrate=N/A speed=7.81x    frame=15147 fps=187 q=-0.0 size=N/A time=00:10:31.75 bitrate=N/A speed= 7.8x    frame=15245 fps=187 q=-0.0 size=N/A time=00:10:35.84 bitrate=N/A speed= 7.8x    frame=15338 fps=187 q=-0.0 size=N/A time=00:10:39.72 bitrate=N/A speed= 7.8x    frame=15443 fps=187 q=-0.0 size=N/A time=00:10:44.10 bitrate=N/A speed=7.81x    frame=15546 fps=187 q=-0.0 size=N/A time=00:10:48.39 bitrate=N/A speed=7.81x    frame=15643 fps=187 q=-0.0 size=N/A time=00:10:52.44 bitrate=N/A speed=7.81x    frame=15744 fps=187 q=-0.0 size=N/A time=00:10:56.65 bitrate=N/A speed=7.81x    frame=15847 fps=187 q=-0.0 size=N/A time=00:11:00.95 bitrate=N/A speed=7.81x    frame=15947 fps=187 q=-0.0 size=N/A time=00:11:05.12 bitrate=N/A speed=7.82x    frame=16051 fps=187 q=-0.0 size=N/A time=00:11:09.46 bitrate=N/A speed=7.82x    frame=16154 fps=188 q=-0.0 size=N/A time=00:11:13.75 bitrate=N/A speed=7.82x    frame=16254 fps=188 q=-0.0 size=N/A time=00:11:17.92 bitrate=N/A speed=7.82x    frame=16357 fps=188 q=-0.0 size=N/A time=00:11:22.22 bitrate=N/A speed=7.83x    frame=16457 fps=188 q=-0.0 size=N/A time=00:11:26.39 bitrate=N/A speed=7.83x    frame=16560 fps=188 q=-0.0 size=N/A time=00:11:30.69 bitrate=N/A speed=7.83x    frame=16663 fps=188 q=-0.0 size=N/A time=00:11:34.98 bitrate=N/A speed=7.83x    frame=16760 fps=188 q=-0.0 size=N/A time=00:11:39.03 bitrate=N/A speed=7.83x    frame=16857 fps=188 q=-0.0 size=N/A time=00:11:43.07 bitrate=N/A speed=7.83x    frame=16948 fps=188 q=-0.0 size=N/A time=00:11:46.87 bitrate=N/A speed=7.83x    frame=17046 fps=188 q=-0.0 size=N/A time=00:11:50.96 bitrate=N/A speed=7.83x    frame=17148 fps=188 q=-0.0 size=N/A time=00:11:55.21 bitrate=N/A speed=7.83x    frame=17244 fps=188 q=-0.0 size=N/A time=00:11:59.21 bitrate=N/A speed=7.83x    frame=17345 fps=188 q=-0.0 size=N/A time=00:12:03.43 bitrate=N/A speed=7.84x    frame=17448 fps=188 q=-0.0 size=N/A time=00:12:07.72 bitrate=N/A speed=7.84x    frame=17544 fps=188 q=-0.0 size=N/A time=00:12:11.73 bitrate=N/A speed=7.84x    frame=17640 fps=188 q=-0.0 size=N/A time=00:12:15.73 bitrate=N/A speed=7.84x    frame=17741 fps=188 q=-0.0 size=N/A time=00:12:19.94 bitrate=N/A speed=7.84x    frame=17842 fps=188 q=-0.0 size=N/A time=00:12:24.16 bitrate=N/A speed=7.84x    frame=17944 fps=188 q=-0.0 size=N/A time=00:12:28.41 bitrate=N/A speed=7.84x    frame=18040 fps=188 q=-0.0 size=N/A time=00:12:32.41 bitrate=N/A speed=7.84x    frame=18137 fps=188 q=-0.0 size=N/A time=00:12:36.46 bitrate=N/A speed=7.84x    frame=18231 fps=188 q=-0.0 size=N/A time=00:12:40.38 bitrate=N/A speed=7.84x    frame=18332 fps=188 q=-0.0 size=N/A time=00:12:44.59 bitrate=N/A speed=7.84x    frame=18433 fps=188 q=-0.0 size=N/A time=00:12:48.80 bitrate=N/A speed=7.85x    frame=18530 fps=188 q=-0.0 size=N/A time=00:12:52.85 bitrate=N/A speed=7.85x    frame=18629 fps=188 q=-0.0 size=N/A time=00:12:56.98 bitrate=N/A speed=7.85x    frame=18734 fps=188 q=-0.0 size=N/A time=00:13:01.36 bitrate=N/A speed=7.85x    frame=18838 fps=188 q=-0.0 size=N/A time=00:13:05.70 bitrate=N/A speed=7.85x    frame=18927 fps=188 q=-0.0 size=N/A time=00:13:09.41 bitrate=N/A speed=7.85x    frame=19041 fps=188 q=-0.0 size=N/A time=00:13:14.16 bitrate=N/A speed=7.86x    frame=19143 fps=188 q=-0.0 size=N/A time=00:13:18.42 bitrate=N/A speed=7.86x    frame=19245 fps=188 q=-0.0 size=N/A time=00:13:22.67 bitrate=N/A speed=7.86x    frame=19341 fps=188 q=-0.0 size=N/A time=00:13:26.68 bitrate=N/A speed=7.86x    frame=19440 fps=188 q=-0.0 size=N/A time=00:13:30.81 bitrate=N/A speed=7.86x    frame=19545 fps=189 q=-0.0 size=N/A time=00:13:35.18 bitrate=N/A speed=7.86x    frame=19637 fps=188 q=-0.0 size=N/A time=00:13:39.02 bitrate=N/A speed=7.86x    frame=19733 fps=188 q=-0.0 size=N/A time=00:13:43.03 bitrate=N/A speed=7.86x    frame=19832 fps=188 q=-0.0 size=N/A time=00:13:47.15 bitrate=N/A speed=7.86x    frame=19922 fps=188 q=-0.0 size=N/A time=00:13:50.91 bitrate=N/A speed=7.86x    frame=20029 fps=189 q=-0.0 size=N/A time=00:13:55.37 bitrate=N/A speed=7.86x    frame=20125 fps=189 q=-0.0 size=N/A time=00:13:59.38 bitrate=N/A speed=7.86x    frame=20229 fps=189 q=-0.0 size=N/A time=00:14:03.71 bitrate=N/A speed=7.87x    frame=20334 fps=189 q=-0.0 size=N/A time=00:14:08.09 bitrate=N/A speed=7.87x    frame=20435 fps=189 q=-0.0 size=N/A time=00:14:12.30 bitrate=N/A speed=7.87x    frame=20536 fps=189 q=-0.0 size=N/A time=00:14:16.52 bitrate=N/A speed=7.87x    frame=20635 fps=189 q=-0.0 size=N/A time=00:14:20.65 bitrate=N/A speed=7.87x    frame=20737 fps=189 q=-0.0 size=N/A time=00:14:24.90 bitrate=N/A speed=7.87x    frame=20831 fps=189 q=-0.0 size=N/A time=00:14:28.82 bitrate=N/A speed=7.87x    frame=20925 fps=189 q=-0.0 size=N/A time=00:14:32.74 bitrate=N/A speed=7.87x    frame=21018 fps=189 q=-0.0 size=N/A time=00:14:36.62 bitrate=N/A speed=7.87x    frame=21115 fps=189 q=-0.0 size=N/A time=00:14:40.67 bitrate=N/A speed=7.87x    frame=21203 fps=189 q=-0.0 size=N/A time=00:14:44.34 bitrate=N/A speed=7.87x    frame=21313 fps=189 q=-0.0 size=N/A time=00:14:48.92 bitrate=N/A speed=7.87x    frame=21412 fps=189 q=-0.0 size=N/A time=00:14:53.05 bitrate=N/A speed=7.87x    frame=21514 fps=189 q=-0.0 size=N/A time=00:14:57.31 bitrate=N/A speed=7.87x    frame=21600 fps=189 q=-0.0 size=N/A time=00:15:00.90 bitrate=N/A speed=7.87x    frame=21711 fps=189 q=-0.0 size=N/A time=00:15:05.52 bitrate=N/A speed=7.87x    frame=21812 fps=189 q=-0.0 size=N/A time=00:15:09.74 bitrate=N/A speed=7.87x    frame=21914 fps=189 q=-0.0 size=N/A time=00:15:13.99 bitrate=N/A speed=7.88x    frame=22017 fps=189 q=-0.0 size=N/A time=00:15:18.29 bitrate=N/A speed=7.88x    frame=22119 fps=189 q=-0.0 size=N/A time=00:15:22.54 bitrate=N/A speed=7.88x    frame=22220 fps=189 q=-0.0 size=N/A time=00:15:26.75 bitrate=N/A speed=7.88x    frame=22319 fps=189 q=-0.0 size=N/A time=00:15:30.88 bitrate=N/A speed=7.88x    frame=22413 fps=189 q=-0.0 size=N/A time=00:15:34.80 bitrate=N/A speed=7.88x    frame=22512 fps=189 q=-0.0 size=N/A time=00:15:38.93 bitrate=N/A speed=7.88x    frame=22607 fps=189 q=-0.0 size=N/A time=00:15:42.90 bitrate=N/A speed=7.88x    frame=22713 fps=189 q=-0.0 size=N/A time=00:15:47.32 bitrate=N/A speed=7.88x    frame=22812 fps=189 q=-0.0 size=N/A time=00:15:51.45 bitrate=N/A speed=7.88x    frame=22917 fps=189 q=-0.0 size=N/A time=00:15:55.82 bitrate=N/A speed=7.89x    frame=23019 fps=189 q=-0.0 size=N/A time=00:16:00.08 bitrate=N/A speed=7.89x    frame=23122 fps=189 q=-0.0 size=N/A time=00:16:04.38 bitrate=N/A speed=7.89x    frame=23220 fps=189 q=-0.0 size=N/A time=00:16:08.46 bitrate=N/A speed=7.89x    frame=23316 fps=189 q=-0.0 size=N/A time=00:16:12.47 bitrate=N/A speed=7.89x    frame=23415 fps=189 q=-0.0 size=N/A time=00:16:16.60 bitrate=N/A speed=7.89x    frame=23520 fps=189 q=-0.0 size=N/A time=00:16:20.98 bitrate=N/A speed=7.89x    frame=23620 fps=189 q=-0.0 size=N/A time=00:16:25.15 bitrate=N/A speed=7.89x    frame=23713 fps=189 q=-0.0 size=N/A time=00:16:29.02 bitrate=N/A speed=7.89x    frame=23815 fps=189 q=-0.0 size=N/A time=00:16:33.28 bitrate=N/A speed=7.89x    frame=23916 fps=189 q=-0.0 size=N/A time=00:16:37.49 bitrate=N/A speed=7.89x    frame=24017 fps=189 q=-0.0 size=N/A time=00:16:41.70 bitrate=N/A speed= 7.9x    frame=24118 fps=189 q=-0.0 size=N/A time=00:16:45.92 bitrate=N/A speed= 7.9x    frame=24220 fps=189 q=-0.0 size=N/A time=00:16:50.17 bitrate=N/A speed= 7.9x    frame=24321 fps=189 q=-0.0 size=N/A time=00:16:54.38 bitrate=N/A speed= 7.9x    frame=24414 fps=189 q=-0.0 size=N/A time=00:16:58.26 bitrate=N/A speed= 7.9x    frame=24527 fps=189 q=-0.0 size=N/A time=00:17:02.98 bitrate=N/A speed= 7.9x    frame=24624 fps=189 q=-0.0 size=N/A time=00:17:07.02 bitrate=N/A speed= 7.9x    frame=24727 fps=189 q=-0.0 size=N/A time=00:17:11.32 bitrate=N/A speed= 7.9x    frame=24829 fps=190 q=-0.0 size=N/A time=00:17:15.57 bitrate=N/A speed=7.91x    frame=24923 fps=189 q=-0.0 size=N/A time=00:17:19.49 bitrate=N/A speed= 7.9x    frame=25013 fps=189 q=-0.0 size=N/A time=00:17:23.25 bitrate=N/A speed= 7.9x    frame=25113 fps=189 q=-0.0 size=N/A time=00:17:27.42 bitrate=N/A speed= 7.9x    frame=25215 fps=189 q=-0.0 size=N/A time=00:17:31.67 bitrate=N/A speed= 7.9x    frame=25316 fps=190 q=-0.0 size=N/A time=00:17:35.88 bitrate=N/A speed= 7.9x    frame=25416 fps=190 q=-0.0 size=N/A time=00:17:40.05 bitrate=N/A speed= 7.9x    frame=25516 fps=190 q=-0.0 size=N/A time=00:17:44.22 bitrate=N/A speed=7.91x    frame=25618 fps=190 q=-0.0 size=N/A time=00:17:48.48 bitrate=N/A speed=7.91x    frame=25718 fps=190 q=-0.0 size=N/A time=00:17:52.65 bitrate=N/A speed=7.91x    frame=25823 fps=190 q=-0.0 size=N/A time=00:17:57.03 bitrate=N/A speed=7.91x    frame=25919 fps=190 q=-0.0 size=N/A time=00:18:01.03 bitrate=N/A speed=7.91x    frame=26026 fps=190 q=-0.0 size=N/A time=00:18:05.50 bitrate=N/A speed=7.91x    frame=26127 fps=190 q=-0.0 size=N/A time=00:18:09.71 bitrate=N/A speed=7.91x    frame=26223 fps=190 q=-0.0 size=N/A time=00:18:13.71 bitrate=N/A speed=7.91x    frame=26325 fps=190 q=-0.0 size=N/A time=00:18:17.97 bitrate=N/A speed=7.91x    frame=26420 fps=190 q=-0.0 size=N/A time=00:18:21.93 bitrate=N/A speed=7.91x    frame=26521 fps=190 q=-0.0 size=N/A time=00:18:26.14 bitrate=N/A speed=7.91x    frame=26623 fps=190 q=-0.0 size=N/A time=00:18:30.40 bitrate=N/A speed=7.91x    frame=26721 fps=190 q=-0.0 size=N/A time=00:18:34.48 bitrate=N/A speed=7.92x    frame=26822 fps=190 q=-0.0 size=N/A time=00:18:38.70 bitrate=N/A speed=7.92x    frame=26922 fps=190 q=-0.0 size=N/A time=00:18:42.87 bitrate=N/A speed=7.92x    frame=27023 fps=190 q=-0.0 size=N/A time=00:18:47.08 bitrate=N/A speed=7.92x    frame=27119 fps=190 q=-0.0 size=N/A time=00:18:51.08 bitrate=N/A speed=7.92x    frame=27219 fps=190 q=-0.0 size=N/A time=00:18:55.25 bitrate=N/A speed=7.92x    frame=27316 fps=190 q=-0.0 size=N/A time=00:18:59.30 bitrate=N/A speed=7.92x    frame=27415 fps=190 q=-0.0 size=N/A time=00:19:03.43 bitrate=N/A speed=7.92x    frame=27506 fps=190 q=-0.0 size=N/A time=00:19:07.22 bitrate=N/A speed=7.92x    frame=27613 fps=190 q=-0.0 size=N/A time=00:19:11.69 bitrate=N/A speed=7.92x    frame=27711 fps=190 q=-0.0 size=N/A time=00:19:15.77 bitrate=N/A speed=7.92x    frame=27803 fps=190 q=-0.0 size=N/A time=00:19:19.61 bitrate=N/A speed=7.92x    frame=27901 fps=190 q=-0.0 size=N/A time=00:19:23.70 bitrate=N/A speed=7.92x    frame=27992 fps=190 q=-0.0 size=N/A time=00:19:27.49 bitrate=N/A speed=7.91x    frame=28090 fps=190 q=-0.0 size=N/A time=00:19:31.58 bitrate=N/A speed=7.91x    frame=28185 fps=190 q=-0.0 size=N/A time=00:19:35.54 bitrate=N/A speed=7.91x    frame=28280 fps=190 q=-0.0 size=N/A time=00:19:39.51 bitrate=N/A speed=7.91x    frame=28380 fps=190 q=-0.0 size=N/A time=00:19:43.68 bitrate=N/A speed=7.91x    frame=28477 fps=190 q=-0.0 size=N/A time=00:19:47.72 bitrate=N/A speed=7.91x    frame=28570 fps=190 q=-0.0 size=N/A time=00:19:51.60 bitrate=N/A speed=7.91x    frame=28674 fps=190 q=-0.0 size=N/A time=00:19:55.94 bitrate=N/A speed=7.91x    frame=28765 fps=190 q=-0.0 size=N/A time=00:19:59.74 bitrate=N/A speed=7.91x    frame=28869 fps=190 q=-0.0 size=N/A time=00:20:04.07 bitrate=N/A speed=7.91x    frame=28964 fps=190 q=-0.0 size=N/A time=00:20:08.04 bitrate=N/A speed=7.91x    frame=29060 fps=190 q=-0.0 size=N/A time=00:20:12.04 bitrate=N/A speed=7.91x    frame=29151 fps=190 q=-0.0 size=N/A time=00:20:15.83 bitrate=N/A speed=7.91x    frame=29252 fps=190 q=-0.0 size=N/A time=00:20:20.05 bitrate=N/A speed=7.91x    frame=29350 fps=190 q=-0.0 size=N/A time=00:20:24.13 bitrate=N/A speed=7.91x    frame=29448 fps=190 q=-0.0 size=N/A time=00:20:28.22 bitrate=N/A speed=7.91x    frame=29540 fps=190 q=-0.0 size=N/A time=00:20:32.06 bitrate=N/A speed=7.91x    frame=29626 fps=190 q=-0.0 size=N/A time=00:20:35.65 bitrate=N/A speed=7.91x    frame=29719 fps=190 q=-0.0 size=N/A time=00:20:39.52 bitrate=N/A speed= 7.9x    frame=29818 fps=190 q=-0.0 size=N/A time=00:20:43.65 bitrate=N/A speed= 7.9x    frame=29925 fps=190 q=-0.0 size=N/A time=00:20:48.12 bitrate=N/A speed=7.91x    frame=30024 fps=190 q=-0.0 size=N/A time=00:20:52.25 bitrate=N/A speed=7.91x    frame=30125 fps=190 q=-0.0 size=N/A time=00:20:56.46 bitrate=N/A speed=7.91x    frame=30219 fps=190 q=-0.0 size=N/A time=00:21:00.38 bitrate=N/A speed=7.91x    frame=30327 fps=190 q=-0.0 size=N/A time=00:21:04.88 bitrate=N/A speed=7.91x    frame=30423 fps=190 q=-0.0 size=N/A time=00:21:08.89 bitrate=N/A speed=7.91x    frame=30534 fps=190 q=-0.0 size=N/A time=00:21:13.52 bitrate=N/A speed=7.91x    frame=30630 fps=190 q=-0.0 size=N/A time=00:21:17.52 bitrate=N/A speed=7.91x    frame=30732 fps=190 q=-0.0 size=N/A time=00:21:21.78 bitrate=N/A speed=7.91x    frame=30830 fps=190 q=-0.0 size=N/A time=00:21:25.86 bitrate=N/A speed=7.91x    frame=30920 fps=190 q=-0.0 size=N/A time=00:21:29.62 bitrate=N/A speed=7.91x    frame=31010 fps=190 q=-0.0 size=N/A time=00:21:33.37 bitrate=N/A speed=7.91x    frame=31103 fps=190 q=-0.0 size=N/A time=00:21:37.25 bitrate=N/A speed=7.91x    frame=31208 fps=190 q=-0.0 size=N/A time=00:21:41.63 bitrate=N/A speed=7.91x    frame=31298 fps=190 q=-0.0 size=N/A time=00:21:45.38 bitrate=N/A speed=7.91x    frame=31410 fps=190 q=-0.0 size=N/A time=00:21:50.05 bitrate=N/A speed=7.91x    frame=31506 fps=190 q=-0.0 size=N/A time=00:21:54.06 bitrate=N/A speed=7.91x    frame=31606 fps=190 q=-0.0 size=N/A time=00:21:58.23 bitrate=N/A speed=7.91x    frame=31692 fps=190 q=-0.0 size=N/A time=00:22:01.82 bitrate=N/A speed=7.91x    frame=31793 fps=190 q=-0.0 size=N/A time=00:22:06.03 bitrate=N/A speed=7.91x    frame=31893 fps=190 q=-0.0 size=N/A time=00:22:10.20 bitrate=N/A speed=7.91x    frame=31984 fps=190 q=-0.0 size=N/A time=00:22:13.99 bitrate=N/A speed=7.91x    frame=32084 fps=190 q=-0.0 size=N/A time=00:22:18.17 bitrate=N/A speed=7.91x    frame=32178 fps=190 q=-0.0 size=N/A time=00:22:22.09 bitrate=N/A speed=7.91x    frame=32274 fps=190 q=-0.0 size=N/A time=00:22:26.09 bitrate=N/A speed=7.91x    frame=32369 fps=190 q=-0.0 size=N/A time=00:22:30.05 bitrate=N/A speed=7.91x    frame=32468 fps=190 q=-0.0 size=N/A time=00:22:34.18 bitrate=N/A speed=7.91x    frame=32562 fps=190 q=-0.0 size=N/A time=00:22:38.10 bitrate=N/A speed=7.91x    frame=32660 fps=190 q=-0.0 size=N/A time=00:22:42.19 bitrate=N/A speed=7.91x    frame=32762 fps=190 q=-0.0 size=N/A time=00:22:46.44 bitrate=N/A speed=7.91x    frame=32864 fps=190 q=-0.0 size=N/A time=00:22:50.70 bitrate=N/A speed=7.91x    frame=32961 fps=190 q=-0.0 size=N/A time=00:22:54.74 bitrate=N/A speed=7.91x    frame=33054 fps=190 q=-0.0 size=N/A time=00:22:58.62 bitrate=N/A speed=7.91x    frame=33156 fps=190 q=-0.0 size=N/A time=00:23:02.88 bitrate=N/A speed=7.91x    frame=33258 fps=190 q=-0.0 size=N/A time=00:23:07.13 bitrate=N/A speed=7.91x    frame=33354 fps=190 q=-0.0 size=N/A time=00:23:11.13 bitrate=N/A speed=7.91x    frame=33452 fps=190 q=-0.0 size=N/A time=00:23:15.22 bitrate=N/A speed=7.91x    frame=33547 fps=190 q=-0.0 size=N/A time=00:23:19.18 bitrate=N/A speed=7.91x    frame=33640 fps=190 q=-0.0 size=N/A time=00:23:23.06 bitrate=N/A speed=7.91x    frame=33734 fps=190 q=-0.0 size=N/A time=00:23:26.98 bitrate=N/A speed=7.91x    frame=33826 fps=190 q=-0.0 size=N/A time=00:23:30.82 bitrate=N/A speed= 7.9x    frame=33925 fps=190 q=-0.0 size=N/A time=00:23:34.95 bitrate=N/A speed= 7.9x    frame=34031 fps=190 q=-0.0 size=N/A time=00:23:39.37 bitrate=N/A speed=7.91x    frame=34122 fps=190 q=-0.0 size=N/A time=00:23:43.17 bitrate=N/A speed= 7.9x    frame=34230 fps=190 q=-0.0 size=N/A time=00:23:47.67 bitrate=N/A speed=7.91x    frame=34329 fps=190 q=-0.0 size=N/A time=00:23:51.80 bitrate=N/A speed=7.91x    frame=34417 fps=190 q=-0.0 size=N/A time=00:23:55.47 bitrate=N/A speed=7.91x    [Parsed_psnr_10 @ 000002333a6389c0] PSNR y:45.809425 u:49.781389 v:49.541258 average:46.756730 min:40.991227 max:inf
[out#0/null @ 000002332ef96a40] video:14805KiB audio:269456KiB subtitle:0KiB other streams:0KiB global headers:0KiB muxing overhead: unknown
frame=34455 fps=190 q=-0.0 Lsize=N/A time=00:23:57.06 bitrate=N/A speed=7.91x    
